<svg version="1.1" xmlns="http://www.w3.org/2000/svg" viewBox="0 0 43 32">
<title>edit</title>
<path d="M29.632 7.701l-2.501-2.571c-0.331-0.341-0.917-0.341-1.248 0l-11.008 11.317c-0.080 0.085-0.139 0.176-0.187 0.283l-1.872 4.496c-0.139 0.341-0.069 0.736 0.187 0.997 0.171 0.171 0.395 0.267 0.624 0.267 0.117 0 0.235-0.021 0.347-0.075l4.373-1.925c0.101-0.043 0.197-0.107 0.272-0.192l11.008-11.317c0.165-0.171 0.256-0.4 0.256-0.64 0.005-0.24-0.091-0.469-0.251-0.64zM17.493 18.891l-2.192 0.965 0.939-2.256 7.803-8.016 1.253 1.285-7.803 8.021zM26.187 9.963c-0.021 0.021-0.048 0.043-0.069 0.064l0.069-0.064-1.259-1.291-0.064 0.069c0.021-0.021 0.043-0.048 0.059-0.069h0.005l1.573-1.621 1.253 1.291-1.568 1.621z"></path>
<path d="M27.499 24.427h-13.429c-0.731 0-1.323 0.592-1.323 1.323s0.592 1.323 1.323 1.323h13.435c0.731 0 1.323-0.592 1.323-1.323s-0.597-1.323-1.328-1.323z"></path>
</svg>